:SAMPLES-PER-SECOND 30
:FRAME-RANGE 1-3535
:FULLY-SPECIFIED
:DEGREES
1326
root  33.0896 31.5131 49.2608 -161.283 -42.7104 -179.511
RightUpLeg  -67.7876 -2.05917 -1.61227
RightLeg  68.9443 -0.211801 -1.38638
RightFoot  -20.3298 0.294562 5.49826
RightToes  1.22775e-009 1.2921e-014 -6.02303e-014
Spine  48.5822 0.417056 2.79553
Spine1  -13.899 1.41963 -2.20545
HEad  -45.8118 10.754 -10.3156
LeftShoulder1  2.14217 -1.7172 -34.972
LeftArm  14.7439 -12.8284 -33.4555
LeftForeArm  4.29206 -18.5898 -8.17036
LeftHand  -0.30473 -4.06695 4.01505
RightShoulder  8.11926 10.5605 50.5607
RightArm  9.65368 -2.59945 13.883
RightForeArm  -5.77651 28.5629 6.48888
RightHand  -0.0431069 4.56449 -0.79175
LeftUpLeg  -67.1359 7.71857 2.06152
LeftLeg  68.78 0.411328 2.00247
LeftFoot  -19.8592 -0.326962 -5.98442
LeftToes  2.52163e-011 5.65494e-011 -1.09494e-012
1327
root  32.8045 30.4934 49.1347 -161.224 -42.7191 -179.842
RightUpLeg  -70.2968 -2.02584 -2.2866
RightLeg  74.4687 -0.145206 -1.72796
RightFoot  -22.8352 0.438028 5.88793
RightToes  1.22775e-009 1.2921e-014 -6.02303e-014
Spine  51.4846 0.445786 2.49061
Spine1  -14.8392 1.50727 -2.21381
HEad  -48.0298 10.8666 -10.7995
LeftShoulder1  2.25674 -1.94872 -35.3266
LeftArm  14.9814 -12.7529 -34.0324
LeftForeArm  6.08439 -15.9952 -10.5476
LeftHand  -0.226155 -4.20782 3.01413
RightShoulder  8.13521 10.6843 50.2213
RightArm  14.0531 -3.99356 14.0558
RightForeArm  -8.74215 27.701 6.42875
RightHand  -0.0294583 4.35032 -0.632856
LeftUpLeg  -69.4495 7.3609 1.89692
LeftLeg  74.1852 0.232771 2.07955
LeftFoot  -22.8078 -0.492263 -6.26069
LeftToes  2.52163e-011 5.65494e-011 -1.09494e-012
1328
root  32.5141 29.6983 49.012 -163.34 -43.4507 -178.663
RightUpLeg  -70.3868 -1.85555 -1.94173
RightLeg  78.514 -0.110686 -2.31281
RightFoot  -25.5406 0.631005 6.45383
RightToes  1.22775e-009 1.2921e-014 -6.02303e-014
Spine  55.2197 -0.301843 3.76414
Spine1  -15.911 1.47028 -2.67738
HEad  -50.3159 10.6308 -10.6061
LeftShoulder1  2.40962 -2.2599 -35.7389
LeftArm  12.4844 -13.6735 -34.5092
LeftForeArm  10.0749 -12.444 -13.1431
LeftHand  -0.171621 -4.17309 2.36046
RightShoulder  8.5159 11.2935 50.4018
RightArm  18.3915 -4.71836 14.4577
RightForeArm  -10.2693 27.1476 6.37063
RightHand  -0.0673335 4.34315 -1.08432
LeftUpLeg  -70.0892 6.83317 3.07331
LeftLeg  78.6579 0.0801524 2.15013
LeftFoot  -25.3066 -0.613751 -6.24691
LeftToes  2.52163e-011 5.65494e-011 -1.09494e-012
1329
root  32.2463 29.1154 48.7764 -167.06 -43.7899 -176.477
RightUpLeg  -68.6827 -0.541343 -0.928476
RightLeg  81.4761 -0.128204 -3.56339
RightFoot  -27.9536 0.875536 7.29167
RightToes  1.22775e-009 1.2921e-014 -6.02303e-014
Spine  58.8727 -0.983913 5.04611
Spine1  -16.699 1.93963 -3.7109
HEad  -52.403 10.4558 -10.2374
LeftShoulder1  2.64957 -2.69945 -36.6254
LeftArm  8.96307 -16.0856 -34.5441
LeftForeArm  11.7444 -7.39274 -15.9684
LeftHand  -0.113595 -3.49943 1.7345
RightShoulder  9.52034 12.7005 51.4288
RightArm  23.0919 -4.031 14.9024
RightForeArm  -13.0511 25.3067 6.06928
RightHand  -0.0845205 4.77492 -1.26078
LeftUpLeg  -68.9809 7.3061 5.06617
LeftLeg  82.3595 -0.141917 1.32113
LeftFoot  -27.8259 -0.738022 -6.24503
LeftToes  2.52163e-011 5.65494e-011 -1.09494e-012
1330
root  31.9302 28.6242 48.4928 -169.851 -44.2042 -175.246
RightUpLeg  -66.993 0.48894 -0.435033
RightLeg  84.1985 -0.053599 -5.07671
RightFoot  -30.0901 1.10181 7.90556
RightToes  1.22775e-009 1.2921e-014 -6.02303e-014
Spine  60.4144 -1.14509 5.50814
Spine1  -17.0316 2.11549 -3.51923
HEad  -53.3281 10.4284 -9.80052
LeftShoulder1  2.85012 -3.15336 -36.7277
LeftArm  7.41829 -19.5852 -35.7361
LeftForeArm  7.59524 -1.06498 -18.4076
LeftHand  -0.0337189 -2.61917 0.696885
RightShoulder  10.9912 14.6601 52.9139
RightArm  27.146 -1.14981 14.9715
RightForeArm  -15.9592 21.3105 6.88642
RightHand  -0.195433 5.01174 -2.48248
LeftUpLeg  -67.6886 7.30674 6.38988
LeftLeg  85.3828 -0.236524 0.768752
LeftFoot  -30.0421 -0.930979 -6.74638
LeftToes  2.52163e-011 5.65494e-011 -1.09494e-012
1331
root  31.562 28.2538 48.0832 -170.932 -43.7059 -174.959
RightUpLeg  -66.0787 2.43432 -0.642134
RightLeg  86.4375 0.104221 -6.71342
RightFoot  -31.8337 1.39788 8.92022
RightToes  1.22775e-009 1.2921e-014 -6.02303e-014
Spine  58.9233 -0.512218 4.58179
Spine1  -16.7507 2.39934 -3.69552
HEad  -53.5795 10.4432 -9.00295
LeftShoulder1  2.90267 -3.26976 -36.7678
LeftArm  4.44126 -22.3411 -36.457
LeftForeArm  4.35252 2.73882 -18.9883
LeftHand  0.0517219 -2.21734 -0.607692
RightShoulder  13.0411 17.2153 54.9284
RightArm  17.8962 3.33184 13.7158
RightForeArm  -6.82294 14.3133 12.268
RightHand  -0.324828 4.7986 -3.99369
LeftUpLeg  -66.5433 8.28142 6.76675
LeftLeg  87.7269 -0.272638 0.0776952
LeftFoot  -32.2355 -1.0208 -6.58506
LeftToes  2.52163e-011 5.65494e-011 -1.09494e-012
1332
root  31.1242 28.0813 47.6784 -169.919 -43.6631 -176.789
RightUpLeg  -65.3177 2.57138 -2.28137
RightLeg  88.1526 0.310266 -6.89662
RightFoot  -33.6132 1.67575 9.66144
RightToes  1.22775e-009 1.2921e-014 -6.02303e-014
Spine  55.2192 0.25135 2.4409
Spine1  -16.1617 1.88794 -2.79347
HEad  -53.4803 10.4704 -8.7417
LeftShoulder1  2.82884 -3.20883 -36.0765
LeftArm  -4.89278 -21.7043 -37.1673
LeftForeArm  7.94982 3.5321 -17.8851
LeftHand  -0.00763383 -1.34306 0.258756
RightShoulder  14.2801 18.8946 55.5835
RightArm  7.8592 7.00517 12.7727
RightForeArm  -0.105114 10.612 13.8658
RightHand  -0.438405 4.77922 -5.29385
LeftUpLeg  -65.4486 8.13559 5.30384
LeftLeg  88.775 -0.278422 0.343169
LeftFoot  -33.6901 -1.13285 -6.75856
LeftToes  2.52163e-011 5.65494e-011 -1.09494e-012
1333
root  30.6449 28.1348 47.1944 -166.32 -43.4079 179.78
RightUpLeg  -65.5139 2.15217 -5.12699
RightLeg  88.9954 0.406667 -6.47562
RightFoot  -35.1916 1.82249 9.75081
RightToes  1.22775e-009 1.2921e-014 -6.02303e-014
Spine  48.7759 1.57544 -1.25452
Spine1  -15.4748 1.35473 -1.29183
HEad  -53.1873 9.95719 -8.19336
LeftShoulder1  2.54755 -2.75543 -34.6608
LeftArm  -4.32839 -17.1886 -38.1604
LeftForeArm  7.19708 -8.27446 -14.5534
LeftHand  -0.105136 -2.37953 1.76976
RightShoulder  13.4247 17.8599 54.836
RightArm  17.2859 7.95257 12.8887
RightForeArm  -15.3349 21.1037 6.89406
RightHand  -0.487503 4.44563 -6.03121
LeftUpLeg  -64.9334 7.91443 2.33404
LeftLeg  88.4413 -0.280755 0.844523
LeftFoot  -34.6928 -1.17211 -6.68093
LeftToes  2.52163e-011 5.65494e-011 -1.09494e-012
1334
root  30.138 28.819 46.6428 -168.155 -43.8968 -179.868
RightUpLeg  -60.4491 1.8908 -4.2544
RightLeg  86.7012 0.126101 -7.11175
RightFoot  -35.9207 1.88507 9.76327
RightToes  1.22775e-009 1.2921e-014 -6.02303e-014
Spine  44.9343 1.77133 -1.89474
Spine1  -15.0833 1.17012 -0.432765
HEad  -52.2948 9.40021 -6.96577
LeftShoulder1  2.18117 -1.95692 -33.9042
LeftArm  2.29891 -11.2758 -36.4112
LeftForeArm  2.28567 -28.1508 -5.96169
LeftHand  -0.322277 -2.59911 4.90054
RightShoulder  11.2846 15.0201 53.2554
RightArm  4.73383 7.91912 11.1602
RightForeArm  -5.73134 34.8707 8.1562
RightHand  -0.542949 3.97058 -6.99298
LeftUpLeg  -60.2222 8.15338 2.71327
LeftLeg  86.2404 -0.249283 0.790113
LeftFoot  -35.0863 -1.1841 -6.63579
LeftToes  2.52163e-011 5.65494e-011 -1.09494e-012
1335
root  29.6161 30.0825 46.0362 -169.911 -45.6202 -179.757
RightUpLeg  -53.5969 0.283426 -3.37141
RightLeg  81.6871 -0.555696 -7.49599
RightFoot  -35.5884 1.76383 9.32848
RightToes  1.22775e-009 1.2921e-014 -6.02303e-014
Spine  40.2088 1.33902 -2.26646
Spine1  -14.363 0.436342 0.785627
HEad  -49.5243 9.03685 -5.29757
LeftShoulder1  1.75849 -1.17972 -31.506
LeftArm  -12.6695 -6.7263 -30.6281
LeftForeArm  18.4966 -46.3085 -10.4107
LeftHand  -0.348574 -2.45123 5.37209
RightShoulder  8.75885 11.9148 49.752
RightArm  -5.03402 6.64492 8.26723
RightForeArm  5.93578 51.0799 13.5077
RightHand  -0.508234 3.13476 -7.15038
LeftUpLeg  -54.2175 7.36354 3.12608
LeftLeg  81.2453 -0.217604 0.475552
LeftFoot  -33.698 -1.07334 -6.45608
LeftToes  2.52163e-011 5.65494e-011 -1.09494e-012
1336
root  29.0385 31.9555 45.3905 -170.818 -47.1351 -179.685
RightUpLeg  -46.0646 -1.4284 -2.6727
RightLeg  73.1131 -1.67523 -7.26663
RightFoot  -33.3615 1.52315 8.98499
RightToes  1.22775e-009 1.2921e-014 -6.02303e-014
Spine  34.606 1.02959 -2.52272
Spine1  -14.4253 0.0183236 1.66503
HEad  -44.358 8.03343 -3.67642
LeftShoulder1  1.31939 -0.388368 -27.7888
LeftArm  -23.8307 -5.41561 -22.2817
LeftForeArm  27.1311 -62.8071 -19.6202
LeftHand  -0.234103 -1.77195 3.96709
RightShoulder  5.78645 8.02988 43.8302
RightArm  -12.7244 5.54798 4.17722
RightForeArm  16.3236 66.2994 25.2025
RightHand  -0.443407 1.9314 -7.206
LeftUpLeg  -47.3608 7.39504 3.33113
LeftLeg  72.7381 -0.479438 -0.724783
LeftFoot  -30.718 -0.853548 -6.07912
LeftToes  2.52163e-011 5.65494e-011 -1.09494e-012
1337
root  28.3538 34.617 44.7046 -172.571 -48.9576 -179.171
RightUpLeg  -35.8258 -4.17177 -2.05678
RightLeg  59.7447 -2.57545 -5.27096
RightFoot  -27.5081 1.06009 8.76804
RightToes  1.22775e-009 1.2921e-014 -6.02303e-014
Spine  28.6038 0.493017 -2.14801
Spine1  -13.632 -0.353891 2.09952
HEad  -37.9886 6.99361 -2.61837
LeftShoulder1  0.961548 0.106225 -21.9362
LeftArm  -33.9567 -6.80684 -13.7616
LeftForeArm  35.2695 -72.1381 -33.3059
LeftHand  -0.140522 0.478729 3.29653
RightShoulder  3.39258 4.78563 35.0435
RightArm  -20.1032 4.1467 0.528775
RightForeArm  27.4804 73.6066 39.9871
RightHand  -0.384191 0.179343 -8.06709
LeftUpLeg  -37.8778 8.24066 3.77223
LeftLeg  59.6693 -1.59668 -2.38121
LeftFoot  -24.3115 -0.48596 -5.55542
LeftToes  2.52163e-011 5.65494e-011 -1.09494e-012
1338
root  27.4821 38.0403 43.9604 -175.013 -50.5253 -178.873
RightUpLeg  -22.1982 -8.36497 -2.56272
RightLeg  40.3743 -0.730527 -0.952717
RightFoot  -14.9716 0.219503 10.116
RightToes  1.22775e-009 1.2921e-014 -6.02303e-014
Spine  22.1801 0.0272791 -1.57862
Spine1  -11.6307 -0.558771 2.12353
HEad  -30.0793 5.9417 -2.68949
LeftShoulder1  0.696571 0.419626 -15.7847
LeftArm  -39.9396 -9.30516 -5.24493
LeftForeArm  45.1323 -75.9656 -45.6796
LeftHand  -0.108596 1.94897 3.37695
RightShoulder  1.82657 2.31661 25.3555
RightArm  -24.5736 4.09182 -1.75006
RightForeArm  23.4117 73.7144 41.4673
RightHand  -0.249791 -1.24586 -6.88397
LeftUpLeg  -24.7084 11.513 4.45543
LeftLeg  40.6751 -6.02326 -5.14217
LeftFoot  -11.5397 0.056648 -7.16389
LeftToes  2.52163e-011 5.65494e-011 -1.09494e-012
1339
root  26.4457 41.8123 43.2026 -176.855 -50.8547 -178.894
RightUpLeg  -8.18907 -14.1005 -5.01128
RightLeg  16.8777 6.35162 2.4816
RightFoot  10.4347 -3.40538 17.9495
RightToes  1.22775e-009 1.2921e-014 -6.02303e-014
Spine  16.822 0.187109 -1.40006
Spine1  -11.9853 -0.218895 2.21768
HEad  -18.4566 6.39354 -3.58942
LeftShoulder1  0.480707 0.803962 -10.5218
LeftArm  -41.3928 -13.2195 2.19794
LeftForeArm  45.4221 -75.5942 -43.4882
LeftHand  -0.0565615 1.16098 1.40021
RightShoulder  1.15549 1.65208 15.7215
RightArm  -24.7776 5.99959 -3.3621
RightForeArm  13.6637 68.5731 29.3396
RightHand  -0.145982 -0.585322 -3.48009
LeftUpLeg  -9.32028 18.7546 6.25491
LeftLeg  14.7609 -14.3218 -4.88326
LeftFoot  13.9106 3.34528 -15.2437
LeftToes  2.52163e-011 5.65494e-011 -1.09494e-012
